{
	"asset":{
		"generator":"Khronos glTF Blender I/O v4.4.56",
		"version":"2.0"
	},
	"scene":0,
	"scenes":[
		{
			"name":"Scene",
			"nodes":[
				0
			]
		}
	],
	"nodes":[
		{
			"mesh":0,
			"name":"tree01",
			"scale":[
				0.009999999776482582,
				0.009999999776482582,
				0.009999999776482582
			]
		}
	],
	"materials":[
		{
			"name":"Mat",
			"pbrMetallicRoughness":{
				"baseColorTexture":{
					"index":0
				},
				"metallicFactor":0
			}
		}
	],
	"meshes":[
		{
			"name":"tree01_1",
			"primitives":[
				{
					"attributes":{
						"POSITION":0,
						"NORMAL":1,
						"TEXCOORD_0":2
					},
					"indices":3,
					"material":0
				}
			]
		}
	],
	"textures":[
		{
			"sampler":0,
			"source":0
		}
	],
	"images":[
		{
			"mimeType":"image/png",
			"name":"tree_texture",
			"uri":"tree_texture.png"
		}
	],
	"accessors":[
		{
			"bufferView":0,
			"componentType":5126,
			"count":395,
			"max":[
				123.4296646118164,
				509.0864562988281,
				168.36563110351562
			],
			"min":[
				-184.9799346923828,
				0,
				-155.37196350097656
			],
			"type":"VEC3"
		},
		{
			"bufferView":1,
			"componentType":5126,
			"count":395,
			"type":"VEC3"
		},
		{
			"bufferView":2,
			"componentType":5126,
			"count":395,
			"type":"VEC2"
		},
		{
			"bufferView":3,
			"componentType":5123,
			"count":471,
			"type":"SCALAR"
		}
	],
	"bufferViews":[
		{
			"buffer":0,
			"byteLength":4740,
			"byteOffset":0,
			"target":34962
		},
		{
			"buffer":0,
			"byteLength":4740,
			"byteOffset":4740,
			"target":34962
		},
		{
			"buffer":0,
			"byteLength":3160,
			"byteOffset":9480,
			"target":34962
		},
		{
			"buffer":0,
			"byteLength":942,
			"byteOffset":12640,
			"target":34963
		}
	],
	"samplers":[
		{
			"magFilter":9729,
			"minFilter":9987
		}
	],
	"buffers":[
		{
			"byteLength":13584,
			"uri":"tree.bin"
		}
	]
}
